#N canvas 620 510 450 300 10;
#X obj 20 16 osc~ 440;
#X obj 37 57 *~;
#X obj 38 101 dac~;
#X obj 92 35 tgl 15 0 empty empty empty 17 7 0 10 -262144 -1 -1 0 1
;
#X connect 0 0 1 0;
#X connect 1 0 2 0;
#X connect 1 0 2 1;
#X connect 3 0 1 1;
