#N canvas 600 74 450 300 10;
#X obj 23 17 osc~ 440;
#X obj 32 97 dac~;
#X obj 35 55 *~;
#X msg 117 17 1;
#X msg 117 87 0;
#X msg 117 53 0.5;
#X connect 0 0 2 0;
#X connect 2 0 1 0;
#X connect 2 0 1 1;
#X connect 3 0 2 1;
#X connect 4 0 2 1;
#X connect 5 0 2 1;
