#N canvas 1016 217 542 417 10;
#X obj 41 22 osc~;
#X obj 40 79 *~;
#X msg 101 51 0;
#X msg 140 62 1;
#X obj 41 -28 mtof;
#X obj 110 -53 trigger float bang bang;
#X msg 189 -106 60;
#X msg 142 -106 59;
#X msg 91 -107 58;
#X msg 36 -107 57;
#X msg 233 -106 61;
#X msg 279 -106 62;
#X msg 327 -104 63;
#X obj 101 12 delay 800;
#X obj 40 126 dac~;
#X connect 0 0 1 0;
#X connect 1 0 14 0;
#X connect 1 0 14 1;
#X connect 2 0 1 1;
#X connect 3 0 1 1;
#X connect 4 0 0 0;
#X connect 5 0 4 0;
#X connect 5 1 13 0;
#X connect 5 2 3 0;
#X connect 6 0 5 0;
#X connect 7 0 5 0;
#X connect 8 0 5 0;
#X connect 9 0 5 0;
#X connect 10 0 5 0;
#X connect 11 0 5 0;
#X connect 12 0 5 0;
#X connect 13 0 2 0;
