#N canvas 1074 20 712 444 10;
#X obj 44 44 osc~ 440;
#X obj 132 131 tabwrite~ array1;
#N canvas 0 0 450 300 (subpatch) 0;
#X array array1 100 float 2;
#X coords 0 1 99 -1 200 140 1;
#X restore 351 48 graph;
#X obj 132 80 metro 100;
#X obj 132 29 loadbang;
#X obj 53 160 dac~;
#X connect 0 0 1 0;
#X connect 0 0 5 0;
#X connect 0 0 5 1;
#X connect 3 0 1 0;
#X connect 4 0 3 0;
