#N canvas 104 187 657 421 10;
#N canvas 0 0 450 300 (subpatch) 0;
#X array \$0-array1 100 float 2;
#X coords 0 1 99 -1 200 140 1;
#X restore 0 0 graph;
#X obj 373 54 metro 100;
#X obj 373 3 loadbang;
#X obj 271 51 inlet~ signal;
#X obj 373 105 tabwrite~ \$0-array1;
#X connect 1 0 4 0;
#X connect 2 0 1 0;
#X connect 3 0 4 0;
#X coords 0 -1 1 1 200 140 2 0 0;
