#N canvas 601 274 906 577 10;
#X obj 35 32 adc~;
#N canvas 0 0 450 300 (subpatch) 0;
#X array waves 500 float 4;
#X coords 0 2 499 -2 600 200 1 0 0;
#X restore 196 -22 graph;
#X obj 95 63 metro 100;
#X obj 106 22 tgl 15 0 empty empty empty 17 7 0 10 -262144 -1 -1 0
1;
#X obj 35 67 *~ 10;
#X obj 35 104 tabwrite~ waves;
#X connect 0 0 4 0;
#X connect 2 0 5 0;
#X connect 3 0 2 0;
#X connect 4 0 5 0;
