#N canvas 764 133 564 414 10;
#N canvas 0 0 450 300 (subpatch) 0;
#X array sine 1027 float 2;
#X coords 0 1 1027 -1 200 140 1;
#X restore 258 78 graph;
#X obj 57 22 loadbang;
#X obj 57 235 dac~;
#X obj 57 187 tabosc4~ sine;
#X floatatom 57 149 5 0 0 0 - - -;
#X msg 57 85 440 \; sine sinesum 1024 1 \; sine normalize 1 \;;
#X connect 1 0 5 0;
#X connect 3 0 2 0;
#X connect 3 0 2 1;
#X connect 4 0 3 0;
#X connect 5 0 4 0;
