#N canvas 777 306 751 332 10;
#X obj 33 29 loadbang;
#X msg 33 74 440 \; triangle sinesum 1024 1 0 -0.111111 0 0.04 0 -0.020408
0 0.012346 0 -0.008264 0 -0.005917 0 -0.004444 0 0.00346 0 -0.00277
0 0.002268 0 \; triangle normalize 1 \;;
#X floatatom 33 200 5 0 0 0 - - -;
#X obj 33 243 tabosc4~ triangle;
#X obj 34 283 dac~;
#N canvas 0 0 450 300 (subpatch) 0;
#X array triangle 1027 float 2;
#X coords 0 1 1027 -1 200 140 1;
#X restore 450 58 graph;
#X connect 0 0 1 0;
#X connect 1 0 2 0;
#X connect 2 0 3 0;
#X connect 3 0 4 0;
#X connect 3 0 4 1;
